<?xml version="1.0" encoding="utf-8"?>
<svg xmlns="http://www.w3.org/2000/svg"
	xmlns:xlink="http://www.w3.org/1999/xlink"
	width="48px" height="40px" viewBox="0 0 48 40">
<path fillRule="evenodd" d="M 20.96 10.39C 14.89 10.56 10.38 15.27 10.38 21.37 10.38 25.95 14.06 29.62 18.67 29.62 18.67 29.62 20.11 29.62 20.11 29.62 23.26 29.62 25.82 27.05 25.82 23.87 25.82 23.87 25.82 23.87 25.82 23.87 25.82 21.97 24.28 20.43 22.38 20.46 21.75 20.47 21.15 20.74 20.72 21.2 20.72 21.2 20.1 21.86 20.1 21.86 19.54 22.46 18.6 22.59 17.95 22.09 17.2 21.51 17.12 20.43 17.75 19.75 17.75 19.75 18.15 19.31 18.15 19.31 19.26 18.09 20.83 17.4 22.48 17.4 22.48 17.4 22.48 17.4 22.48 17.4 26 17.4 28.86 20.28 28.86 23.82 28.86 23.82 28.86 23.82 28.86 23.82 28.86 28.71 24.92 32.67 20.05 32.67 20.05 32.67 18.68 32.67 18.68 32.67 12.39 32.67 7.29 27.55 7.29 21.23 7.29 21.23 7.29 21.23 7.29 21.23 7.29 13.55 13.48 7.33 21.12 7.33 21.12 7.33 40.71 7.33 40.71 7.33 44.74 7.33 48 4.05 48-0 48-0 21.2-0 21.2-0 9.49-0-0 9.54-0 21.31-0 21.31-0 21.31-0 21.31-0 31.63 8.33 40 18.6 40 18.6 40 20.14 40 20.14 40 28.82 40 35.85 32.93 35.85 24.22 35.85 24.22 35.85 23.41 35.85 23.41 35.85 21.14 35.27 18.93 34.26 17.1 34.26 17.1 36.15 17.1 36.15 17.1 39.84 17.1 42.84 14.09 42.84 10.38 42.84 10.38 42.84 10.38 42.84 10.38 42.84 10.38 20.96 10.39 20.96 10.39Z" fill="rgb(255,255,255)"/></svg>